<svg width="20" height="21" viewBox="0 0 20 21" fill="none" xmlns="http://www.w3.org/2000/svg">
    <path
        d="M18.7257 6.01932C18.479 3.69961 16.6302 1.83691 14.3192 1.5778C11.4141 1.25206 8.58592 1.25206 5.68078 1.5778C3.36976 1.83692 1.52096 3.69962 1.27424 6.0193C1.12758 7.39817 1 8.84616 1 10.3335C1 11.8208 1.12758 13.2688 1.27424 14.6477C1.52096 16.9674 3.36975 18.8301 5.68078 19.0892L5.7922 18.0955L5.6808 19.0892C8.58593 19.4149 11.4141 19.4149 14.3192 19.0892C16.6302 18.8301 18.479 16.9675 18.7257 14.6477C18.8724 13.2688 19 11.8208 19 10.3335C19 8.84615 18.8724 7.39819 18.7257 6.01932ZM18.7257 6.01932L17.7313 6.12507L18.7257 6.01932Z"
        stroke="#005E70" stroke-width="2" />
</svg>