<svg width="20" height="20" viewBox="0 0 20 20" fill="none" xmlns="http://www.w3.org/2000/svg">
    <path
        d="M5.68078 18.7557L5.7922 17.762L5.6808 18.7557C8.58593 19.0814 11.4141 19.0814 14.3192 18.7557L14.2077 17.762L14.3192 18.7557C16.6302 18.4966 18.479 16.634 18.7257 14.3142C18.8724 12.9353 19 11.4873 19 9.99999C19 8.51265 18.8724 7.0647 18.7257 5.68583C18.479 3.36612 16.6302 1.50342 14.3192 1.2443C11.4141 0.918566 8.58592 0.918566 5.68078 1.2443C3.36976 1.50342 1.52096 3.36612 1.27424 5.68581C1.12758 7.06468 1 8.51266 1 9.99999C1 11.4873 1.12758 12.9353 1.27424 14.3142C1.52096 16.6339 3.36975 18.4966 5.68078 18.7557Z"
        stroke="#005E70" stroke-width="2" />
    <path
        d="M12.8713 11.9984L12.8713 11.9985C12.8221 12.4612 12.4462 12.8363 11.9925 12.8872C10.651 13.0376 9.34903 13.0376 8.00752 12.8872C7.55383 12.8363 7.17792 12.4612 7.12871 11.9985L6.20032 12.0972L7.12871 11.9984C7.0569 11.3233 7 10.6625 7 9.99999C7 9.33745 7.0569 8.67668 7.12871 8.00155L6.13431 7.89578L7.12871 8.00155C7.17792 7.53884 7.55383 7.16368 8.00753 7.11281C9.34902 6.9624 10.651 6.9624 11.9924 7.11281L11.9924 7.11281C12.4462 7.16368 12.8221 7.53885 12.8713 8.00153L12.8713 8.00156C12.9431 8.67669 13 9.33746 13 9.99999C13 10.6625 12.9431 11.3233 12.8713 11.9984Z"
        fill="#005E70" stroke="#005E70" stroke-width="2" />
</svg>