<svg width="16" height="16" viewBox="0 0 16 16" fill="none" xmlns="http://www.w3.org/2000/svg">
    <path
        d="M14.9855 12.1291L14.9855 12.1291C14.8254 13.6355 13.6165 14.8493 12.1242 15.0166C9.34867 15.3278 6.65132 15.3278 3.87577 15.0166C2.38353 14.8493 1.17464 13.6355 1.01442 12.1291L0.269039 12.2084L1.01442 12.1291C0.869542 10.7669 0.75 9.39269 0.75 7.99999C0.75 6.6073 0.869541 5.23307 1.01442 3.87089L0.26863 3.79157L1.01442 3.87089C1.17464 2.36453 2.38353 1.15072 3.87577 0.983403C6.65133 0.672199 9.34866 0.672199 12.1242 0.983403L12.2076 0.238931L12.1242 0.983404C13.6165 1.15072 14.8254 2.36454 14.9855 3.87088L14.9855 3.8709C15.1304 5.23309 15.25 6.60731 15.25 7.99999C15.25 9.39268 15.1304 10.7669 14.9855 12.1291ZM16 7.99999C16 6.56674 15.877 5.1609 15.7313 3.79157V12.2084C15.877 10.8391 16 9.43325 16 7.99999Z"
        stroke="#FCF9F5" stroke-width="1.5" />
    <path d="M5.72534 10.2751L9.72534 6.27507" stroke="#FCF9F5" stroke-width="1.5" stroke-linecap="square"
        stroke-linejoin="round" />
    <path
        d="M6.73868 5.45552C8.04756 5.30315 8.78144 5.35701 9.81308 5.49928C10.1781 5.54962 10.4506 5.82209 10.5009 6.18713C10.6432 7.21877 10.697 7.95264 10.5447 9.26153"
        stroke="#FCF9F5" stroke-width="1.5" stroke-linecap="square" stroke-linejoin="round" />
</svg>