<svg width="1116" height="375" viewBox="0 0 1116 375" fill="none" xmlns="http://www.w3.org/2000/svg">
    <path
        d="M1120.42 375.32C1134.14 283.329 1214.17 44.0579 1339.24 136.033C1402.91 182.319 1532.73 337.809 1427.93 398.398C1314.69 458.697 654.881 383.95 972.769 189.398C1042.35 147.184 1405.98 -88.24 1445.7 35.654C1465.23 98.0696 1421.78 158.061 1391.44 209.228C1352.54 271.903 1322.15 335.401 1287.25 400.402C1269.58 432.758 1163.13 643.988 1128.17 552.983C1108.38 496.353 1112.76 434.018 1120.42 375.304V375.32Z"
        stroke="#FCF9F5" stroke-width="25" stroke-miterlimit="10" />
    <path
        d="M-241.099 61.4231C-263.697 58.128 -287.77 59.1608 -307.86 69.9803C-358.515 97.2749 -359.572 174.241 -326.991 221.675C-287.574 279.067 -220.394 304.345 -165.682 343.173C-84.0687 401.106 -57.2904 527.866 -107.404 615.185C-186.878 753.625 -356.671 768.723 -482.3 683.79C-518.693 659.2 -548.028 621.135 -553.094 577.513C-561.602 503.916 -502.832 446.253 -441.088 417.483C-364.146 381.631 -270.213 383.77 -192.165 414.901C-96.0439 453.261 27.5197 598.144 138.444 521.719C197.755 480.851 199.058 392.278 175.009 324.411C148.551 249.732 81.5189 161.651 -6.53709 162.413C-19.3975 162.536 -32.8236 166.864 -41.0857 176.749C-71.7738 213.535 -24.3155 265.371 -28.8155 304.985C-30.4138 319.001 -40.1759 334.05 -54.2658 334.001C-112.322 333.779 -89.6997 212.773 -95.6504 179.724C-107.331 114.758 -179.944 70.3491 -241.074 61.4231H-241.099Z"
        stroke="#FCF9F5" stroke-width="25" stroke-miterlimit="10" />
</svg>