<svg width="197" height="51" viewBox="0 0 197 51" fill="none" xmlns="http://www.w3.org/2000/svg">
    <path
        d="M6.67196 24.1673C10.4701 24.1673 12.7792 22.3114 12.7792 19.5059C12.7792 17.1537 11.2686 15.6862 8.11784 14.8878L6.69354 14.5209C5.3124 14.1325 4.36287 13.7656 4.36287 12.7729C4.36287 11.9528 5.2045 11.4133 6.71512 11.4133C8.07468 11.4133 9.19685 11.9313 9.73636 13.0534L12.4339 11.6507C11.4844 9.60059 9.28318 8.5 6.69354 8.5C3.26228 8.5 0.931606 10.3343 0.931606 12.9455C0.931606 15.3194 2.31274 16.7437 5.26924 17.6069L6.67196 17.9953C8.4847 18.4917 9.39108 18.837 9.39108 19.7433C9.39108 20.6497 8.35522 21.2539 6.67196 21.2539C5.01028 21.2539 3.82336 20.3907 3.21912 19.0959L0.5 20.6713C1.64375 23.153 4.03917 24.1673 6.67196 24.1673Z"
        fill="#005E70" />
    <path
        d="M24.5278 8.78054V17.4558C24.5278 19.9375 23.3409 21.1029 21.5281 21.1029C19.7154 21.1029 18.5285 19.9375 18.5285 17.4558V8.78054H15.1404V17.6069C15.1404 21.7719 17.6005 24.1673 21.5281 24.1673C25.4557 24.1673 27.9159 21.7719 27.9159 17.6069V8.78054H24.5278Z"
        fill="#005E70" />
    <path
        d="M36.4502 24.1673C40.2483 24.1673 42.5574 22.3114 42.5574 19.5059C42.5574 17.1537 41.0468 15.6862 37.8961 14.8878L36.4718 14.5209C35.0907 14.1325 34.1411 13.7656 34.1411 12.7729C34.1411 11.9528 34.9828 11.4133 36.4934 11.4133C37.8529 11.4133 38.9751 11.9313 39.5146 13.0534L42.2122 11.6507C41.2626 9.60059 39.0614 8.5 36.4718 8.5C33.0405 8.5 30.7099 10.3343 30.7099 12.9455C30.7099 15.3194 32.091 16.7437 35.0475 17.6069L36.4502 17.9953C38.263 18.4917 39.1693 18.837 39.1693 19.7433C39.1693 20.6497 38.1335 21.2539 36.4502 21.2539C34.7885 21.2539 33.6016 20.3907 32.9974 19.0959L30.2783 20.6713C31.422 23.153 33.8174 24.1673 36.4502 24.1673Z"
        fill="#005E70" />
    <path d="M43.6354 8.78054V11.7586H48.1673V23.8867H51.5338V11.7586H56.0657V8.78054H43.6354Z" fill="#005E70" />
    <path
        d="M70.2829 23.8867L64.3699 8.78054H61.0681L55.1767 23.8867H58.6943L60.0106 20.2397H65.3626L66.679 23.8867H70.2829ZM62.0824 14.4993C62.3845 13.6577 62.6434 12.8161 62.6434 12.5139H62.7298C62.7298 12.8161 62.9887 13.6577 63.2908 14.4993L64.3915 17.5206H60.9818L62.0824 14.4993Z"
        fill="#005E70" />
    <path d="M72.2984 8.78054V23.8867H75.6865V8.78054H72.2984Z" fill="#005E70" />
    <path
        d="M88.9702 16.3984C88.9702 17.3911 89.0134 18.3406 89.0997 18.6427L89.0349 18.6643C88.927 18.3838 88.4091 17.5637 87.8264 16.7652L82.1508 8.78054H79.0001V23.8867H82.3666V16.2689C82.3666 15.2762 82.3235 14.3267 82.2372 14.0246L82.3019 14.003C82.4098 14.2835 82.9277 15.1036 83.5104 15.902L89.186 23.8867H92.3367V8.78054H88.9702V16.3984Z"
        fill="#005E70" />
    <path
        d="M109.481 23.8867L103.568 8.78054H100.267L94.3752 23.8867H97.8928L99.2092 20.2397H104.561L105.878 23.8867H109.481ZM101.281 14.4993C101.583 13.6577 101.842 12.8161 101.842 12.5139H101.928C101.928 12.8161 102.187 13.6577 102.489 14.4993L103.59 17.5206H100.18L101.281 14.4993Z"
        fill="#005E70" />
    <path
        d="M120.949 15.9236C122.071 15.3194 122.827 14.2619 122.827 12.9024C122.827 10.2048 120.992 8.78054 117.626 8.78054H111.497V23.8867H118.101C121.769 23.8867 123.668 22.3761 123.668 19.6138C123.668 18.0169 122.762 16.6142 120.949 15.9236ZM117.302 11.6507C118.489 11.6507 119.331 12.0176 119.331 13.2477C119.331 14.4562 118.511 14.8014 117.302 14.8014H114.885V11.6507H117.302ZM114.885 21.0166V17.4558H117.949C119.331 17.4558 120.172 17.9953 120.172 19.247C120.172 20.4986 119.331 21.0166 117.949 21.0166H114.885Z"
        fill="#005E70" />
    <path d="M129.658 8.78054H126.27V23.8867H136.456V20.9087H129.658V8.78054Z" fill="#005E70" />
    <path
        d="M149.556 8.78054H138.81V23.8867H149.556V20.9087H142.198V17.5853H148.629V14.6935H142.198V11.7586H149.556V8.78054Z"
        fill="#005E70" />
    <path
        d="M68.9361 42.7263C72.7342 42.7263 75.0433 40.8704 75.0433 38.065C75.0433 35.7127 73.5327 34.2453 70.382 33.4468L68.9577 33.0799C67.5766 32.6915 66.627 32.3246 66.627 31.3319C66.627 30.5119 67.4687 29.9724 68.9793 29.9724C70.3388 29.9724 71.461 30.4903 72.0005 31.6125L74.6981 30.2098C73.7485 28.1596 71.5473 27.059 68.9577 27.059C65.5264 27.059 63.1958 28.8934 63.1958 31.5046C63.1958 33.8784 64.5769 35.3027 67.5334 36.1659L68.9361 36.5544C70.7489 37.0507 71.6552 37.396 71.6552 38.3024C71.6552 39.2087 70.6194 39.813 68.9361 39.813C67.2744 39.813 66.0875 38.9498 65.4833 37.6549L62.7642 39.2303C63.9079 41.712 66.3033 42.7263 68.9361 42.7263Z"
        fill="#005E70" />
    <path
        d="M90.8406 42.4458L84.9276 27.3396H81.6258L75.7344 42.4458H79.252L80.5684 38.7987H85.9203L87.2367 42.4458H90.8406ZM82.6401 33.0584C82.9422 32.2167 83.2012 31.3751 83.2012 31.073H83.2875C83.2875 31.3751 83.5465 32.2167 83.8486 33.0584L84.9492 36.0796H81.5395L82.6401 33.0584Z"
        fill="#005E70" />
    <path d="M96.2443 27.3396H92.8562V42.4458H103.042V39.4677H96.2443V27.3396Z" fill="#005E70" />
    <path
        d="M111.5 42.7263C116.054 42.7263 119.248 39.554 119.248 34.8927C119.248 30.2313 116.054 27.059 111.5 27.059C106.968 27.059 103.753 30.2313 103.753 34.8927C103.753 39.554 106.968 42.7263 111.5 42.7263ZM111.5 39.6619C109.04 39.6619 107.292 37.8708 107.292 34.8927C107.292 31.9146 109.04 30.1234 111.5 30.1234C113.961 30.1234 115.709 31.9146 115.709 34.8927C115.709 37.8708 113.961 39.6619 111.5 39.6619Z"
        fill="#005E70" />
    <path
        d="M131.709 34.9574C131.709 35.9501 131.752 36.8996 131.839 37.2018L131.774 37.2233C131.666 36.9428 131.148 36.1227 130.566 35.3243L124.89 27.3396H121.739V42.4458H125.106V34.8279C125.106 33.8352 125.063 32.8857 124.976 32.5836L125.041 32.562C125.149 32.8425 125.667 33.6626 126.249 34.4611L131.925 42.4458H135.076V27.3396H131.709V34.9574Z"
        fill="#005E70" />
    <path
        d="M143.783 42.7263C147.581 42.7263 149.89 40.8704 149.89 38.065C149.89 35.7127 148.379 34.2453 145.228 33.4468L143.804 33.0799C142.423 32.6915 141.474 32.3246 141.474 31.3319C141.474 30.5119 142.315 29.9724 143.826 29.9724C145.185 29.9724 146.307 30.4903 146.847 31.6125L149.545 30.2098C148.595 28.1596 146.394 27.059 143.804 27.059C140.373 27.059 138.042 28.8934 138.042 31.5046C138.042 33.8784 139.423 35.3027 142.38 36.1659L143.783 36.5544C145.595 37.0507 146.502 37.396 146.502 38.3024C146.502 39.2087 145.466 39.813 143.783 39.813C142.121 39.813 140.934 38.9498 140.33 37.6549L137.611 39.2303C138.754 41.712 141.15 42.7263 143.783 42.7263Z"
        fill="#005E70" />
    <path
        d="M173.815 40.682C178.427 43.4282 184.702 43.3909 189.158 40.3385C190.842 39.1849 192.287 37.6263 193.061 35.7472C194.129 33.1547 193.806 30.0847 192.386 27.6623C190.966 25.241 188.521 23.475 185.81 22.6836C182.993 21.8604 179.964 22.0448 177.115 21.339C174.698 20.7397 172.42 19.4709 170.812 17.5852C169.204 15.6985 168.313 13.1773 168.595 10.723C168.983 7.35779 171.503 4.51281 174.513 2.91031C180.077 -0.0543045 187.515 0.942317 192.085 5.26577C193.786 6.87485 195.153 9.09968 194.87 11.4134C194.637 13.3079 193.251 14.9883 191.467 15.7072C189.683 16.4262 187.572 16.2088 185.906 15.2528C184.318 14.3418 183.166 12.8557 181.793 11.6505C178.931 9.1381 174.997 7.86818 171.192 8.22929C169.207 8.41698 167.273 9.0481 165.546 10.0337C164.679 10.5288 163.863 11.1138 163.12 11.7789C162.748 12.1115 162.395 12.4627 162.061 12.8337C161.896 13.017 161.721 13.2025 161.578 13.4034C161.458 13.5702 161.395 13.7689 161.283 13.9445C160.197 15.6447 159.795 17.718 160.032 19.7058C160.143 20.6442 160.397 21.5673 160.79 22.4289C162.07 25.2344 164.705 27.3385 167.676 28.2364C170.427 29.0683 173.384 28.9267 176.185 29.5743C180.578 30.5896 184.672 34.0624 185.064 38.5165C185.322 41.4559 183.919 44.4073 181.704 46.3797C179.489 48.3521 176.546 49.4036 173.583 49.6922C168.48 50.1873 162.926 48.2204 160.178 43.9298C159.097 42.2417 158.486 40.1168 159.134 38.2234C159.708 36.5452 161.251 35.2665 162.991 34.856C164.73 34.4455 166.619 34.8604 168.113 35.8339C169.51 36.7428 170.554 38.0829 171.79 39.1959C172.415 39.759 173.094 40.2551 173.814 40.6831L173.815 40.682Z"
        stroke="#005E70" stroke-width="1.94286" stroke-miterlimit="10" />
</svg>