<svg width="139" height="38" viewBox="0 0 139 38" fill="none" xmlns="http://www.w3.org/2000/svg">
    <path
        d="M4.35668 18.0593C7.03771 18.0593 8.66765 16.7492 8.66765 14.7689C8.66765 13.1085 7.60133 12.0726 5.3773 11.509L4.37191 11.25C3.39699 10.9758 2.72673 10.7169 2.72673 10.0162C2.72673 9.4373 3.32082 9.05647 4.38714 9.05647C5.34683 9.05647 6.13895 9.42207 6.51978 10.2142L8.42393 9.22404C7.75367 7.77689 6.19989 7 4.37191 7C1.94984 7 0.304663 8.29482 0.304663 10.138C0.304663 11.8137 1.27958 12.8191 3.36652 13.4284L4.35668 13.7026C5.63626 14.0529 6.27605 14.2967 6.27605 14.9365C6.27605 15.5763 5.54486 16.0028 4.35668 16.0028C3.18373 16.0028 2.3459 15.3935 1.91938 14.4795L0 15.5915C0.807356 17.3433 2.49824 18.0593 4.35668 18.0593Z"
        fill="#005E70" />
    <path
        d="M16.9608 7.19803V13.3218C16.9608 15.0736 16.123 15.8962 14.8434 15.8962C13.5638 15.8962 12.726 15.0736 12.726 13.3218V7.19803H10.3344V13.4284C10.3344 16.3684 12.071 18.0593 14.8434 18.0593C17.6158 18.0593 19.3524 16.3684 19.3524 13.4284V7.19803H16.9608Z"
        fill="#005E70" />
    <path
        d="M25.3766 18.0593C28.0577 18.0593 29.6876 16.7492 29.6876 14.7689C29.6876 13.1085 28.6213 12.0726 26.3972 11.509L25.3919 11.25C24.4169 10.9758 23.7467 10.7169 23.7467 10.0162C23.7467 9.4373 24.3408 9.05647 25.4071 9.05647C26.3668 9.05647 27.1589 9.42207 27.5397 10.2142L29.4439 9.22404C28.7736 7.77689 27.2198 7 25.3919 7C22.9698 7 21.3246 8.29482 21.3246 10.138C21.3246 11.8137 22.2995 12.8191 24.3865 13.4284L25.3766 13.7026C26.6562 14.0529 27.296 14.2967 27.296 14.9365C27.296 15.5763 26.5648 16.0028 25.3766 16.0028C24.2037 16.0028 23.3658 15.3935 22.9393 14.4795L21.0199 15.5915C21.8273 17.3433 23.5182 18.0593 25.3766 18.0593Z"
        fill="#005E70" />
    <path d="M30.4485 7.19803V9.3002H33.6475V17.8612H36.0239V9.3002H39.2228V7.19803H30.4485Z" fill="#005E70" />
    <path
        d="M49.2585 17.8612L45.0846 7.19803H42.7539L38.5953 17.8612H41.0783L42.0075 15.2868H45.7853L46.7146 17.8612H49.2585ZM43.4699 11.2348C43.6832 10.6407 43.866 10.0466 43.866 9.83336H43.9269C43.9269 10.0466 44.1097 10.6407 44.323 11.2348L45.0999 13.3675H42.693L43.4699 11.2348Z"
        fill="#005E70" />
    <path d="M50.6812 7.19803V17.8612H53.0729V7.19803H50.6812Z" fill="#005E70" />
    <path
        d="M62.4496 12.5753C62.4496 13.2761 62.48 13.9463 62.541 14.1596L62.4953 14.1748C62.4191 13.9768 62.0535 13.3979 61.6422 12.8343L57.6359 7.19803H55.4119V17.8612H57.7882V12.4839C57.7882 11.7832 57.7578 11.1129 57.6968 10.8997L57.7425 10.8844C57.8187 11.0825 58.1843 11.6613 58.5956 12.225L62.6019 17.8612H64.8259V7.19803H62.4496V12.5753Z"
        fill="#005E70" />
    <path
        d="M76.9281 17.8612L72.7542 7.19803H70.4235L66.2649 17.8612H68.7479L69.6771 15.2868H73.4549L74.3841 17.8612H76.9281ZM71.1395 11.2348C71.3527 10.6407 71.5355 10.0466 71.5355 9.83336H71.5965C71.5965 10.0466 71.7793 10.6407 71.9925 11.2348L72.7694 13.3675H70.3626L71.1395 11.2348Z"
        fill="#005E70" />
    <path
        d="M85.0229 12.2402C85.8151 11.8137 86.3482 11.0672 86.3482 10.1076C86.3482 8.20342 85.0534 7.19803 82.677 7.19803H78.3508V17.8612H83.0122C85.6018 17.8612 86.9423 16.7949 86.9423 14.8451C86.9423 13.7178 86.3025 12.7277 85.0229 12.2402ZM82.4485 9.22404C83.2863 9.22404 83.8804 9.483 83.8804 10.3513C83.8804 11.2043 83.3016 11.4481 82.4485 11.4481H80.7424V9.22404H82.4485ZM80.7424 15.8352V13.3218H82.9055C83.8804 13.3218 84.4745 13.7026 84.4745 14.5861C84.4745 15.4696 83.8804 15.8352 82.9055 15.8352H80.7424Z"
        fill="#005E70" />
    <path d="M91.1706 7.19803H88.779V17.8612H95.969V15.7591H91.1706V7.19803Z" fill="#005E70" />
    <path
        d="M105.216 7.19803H97.6303V17.8612H105.216V15.7591H100.022V13.4132H104.561V11.3719H100.022V9.3002H105.216V7.19803Z"
        fill="#005E70" />
    <path
        d="M48.3078 31.1598C50.9889 31.1598 52.6188 29.8497 52.6188 27.8694C52.6188 26.209 51.5525 25.1731 49.3285 24.6095L48.3231 24.3505C47.3482 24.0763 46.6779 23.8174 46.6779 23.1167C46.6779 22.5378 47.272 22.157 48.3383 22.157C49.298 22.157 50.0901 22.5226 50.471 23.3147L52.3751 22.3245C51.7048 20.8774 50.1511 20.1005 48.3231 20.1005C45.901 20.1005 44.2558 21.3953 44.2558 23.2385C44.2558 24.9142 45.2308 25.9196 47.3177 26.5289L48.3078 26.8031C49.5874 27.1534 50.2272 27.3972 50.2272 28.037C50.2272 28.6768 49.496 29.1033 48.3078 29.1033C47.1349 29.1033 46.2971 28.494 45.8705 27.58L43.9512 28.692C44.7585 30.4438 46.4494 31.1598 48.3078 31.1598Z"
        fill="#005E70" />
    <path
        d="M63.7698 30.9617L59.596 20.2985H57.2653L53.1066 30.9617H55.5896L56.5189 28.3873H60.2967L61.2259 30.9617H63.7698ZM57.9813 24.3353C58.1945 23.7412 58.3773 23.1471 58.3773 22.9339H58.4382C58.4382 23.1471 58.621 23.7412 58.8343 24.3353L59.6112 26.4679H57.2044L57.9813 24.3353Z"
        fill="#005E70" />
    <path d="M67.5842 20.2985H65.1926V30.9617H72.3826V28.8595H67.5842V20.2985Z" fill="#005E70" />
    <path
        d="M78.3532 31.1598C81.5674 31.1598 83.8219 28.9205 83.8219 25.6301C83.8219 22.3398 81.5674 20.1005 78.3532 20.1005C75.1542 20.1005 72.8845 22.3398 72.8845 25.6301C72.8845 28.9205 75.1542 31.1598 78.3532 31.1598ZM78.3532 28.9966C76.6166 28.9966 75.3827 27.7323 75.3827 25.6301C75.3827 23.528 76.6166 22.2636 78.3532 22.2636C80.0898 22.2636 81.3237 23.528 81.3237 25.6301C81.3237 27.7323 80.0898 28.9966 78.3532 28.9966Z"
        fill="#005E70" />
    <path
        d="M92.6183 25.6758C92.6183 26.3765 92.6488 27.0468 92.7097 27.2601L92.664 27.2753C92.5878 27.0773 92.2222 26.4984 91.811 25.9348L87.8046 20.2985H85.5806V30.9617H87.957V25.5844C87.957 24.8837 87.9265 24.2134 87.8656 24.0002L87.9113 23.9849C87.9874 24.183 88.353 24.7618 88.7643 25.3255L92.7706 30.9617H94.9947V20.2985H92.6183V25.6758Z"
        fill="#005E70" />
    <path
        d="M101.141 31.1598C103.822 31.1598 105.452 29.8497 105.452 27.8694C105.452 26.209 104.385 25.1731 102.161 24.6095L101.156 24.3505C100.181 24.0763 99.5107 23.8174 99.5107 23.1167C99.5107 22.5378 100.105 22.157 101.171 22.157C102.131 22.157 102.923 22.5226 103.304 23.3147L105.208 22.3245C104.538 20.8774 102.984 20.1005 101.156 20.1005C98.7338 20.1005 97.0886 21.3953 97.0886 23.2385C97.0886 24.9142 98.0636 25.9196 100.151 26.5289L101.141 26.8031C102.42 27.1534 103.06 27.3972 103.06 28.037C103.06 28.6768 102.329 29.1033 101.141 29.1033C99.9677 29.1033 99.1299 28.494 98.7034 27.58L96.784 28.692C97.5913 30.4438 99.2822 31.1598 101.141 31.1598Z"
        fill="#005E70" />
    <path
        d="M122.34 29.7166C125.596 31.6551 130.025 31.6287 133.17 29.4741C134.359 28.6598 135.379 27.5596 135.926 26.2332C136.679 24.4032 136.451 22.2361 135.449 20.5262C134.447 18.817 132.721 17.5704 130.807 17.0118C128.819 16.4307 126.681 16.5609 124.669 16.0627C122.963 15.6397 121.355 14.744 120.22 13.413C119.085 12.0811 118.456 10.3015 118.655 8.56906C118.929 6.19359 120.708 4.18537 122.832 3.0542C126.76 0.961524 132.01 1.66502 135.236 4.71687C136.437 5.85269 137.402 7.42316 137.202 9.05639C137.038 10.3937 136.059 11.5798 134.8 12.0873C133.541 12.5948 132.051 12.4414 130.874 11.7666C129.753 11.1235 128.941 10.0744 127.971 9.22374C125.951 7.45028 123.174 6.55386 120.488 6.80876C119.087 6.94125 117.722 7.38675 116.503 8.0825C115.891 8.43192 115.315 8.84488 114.791 9.31439C114.528 9.54915 114.279 9.79708 114.043 10.059C113.927 10.1883 113.803 10.3193 113.702 10.4611C113.617 10.5788 113.573 10.7191 113.494 10.843C112.727 12.0432 112.443 13.5067 112.61 14.9098C112.689 15.5723 112.868 16.2239 113.146 16.8321C114.05 18.8124 115.909 20.2976 118.006 20.9314C119.948 21.5187 122.036 21.4187 124.013 21.8759C127.114 22.5925 130.004 25.0439 130.28 28.188C130.462 30.2628 129.472 32.3462 127.909 33.7385C126.345 35.1307 124.268 35.873 122.176 36.0767C118.574 36.4262 114.654 35.0378 112.714 32.0092C111.951 30.8176 111.519 29.3176 111.977 27.9811C112.382 26.7965 113.471 25.8938 114.699 25.6041C115.927 25.3143 117.261 25.6072 118.315 26.2944C119.301 26.9359 120.038 27.8819 120.91 28.6675C121.352 29.065 121.831 29.4152 122.339 29.7174L122.34 29.7166Z"
        stroke="#005E70" stroke-width="1.94286" stroke-miterlimit="10" />
</svg>