<svg width="24" height="24" viewBox="0 0 24 24" fill="none" xmlns="http://www.w3.org/2000/svg">
    <path
        d="M6.59004 21.9418C4.2203 21.6777 2.3134 19.7707 2.05973 17.3998C1.87248 15.6496 1.71436 13.8527 1.71436 12.0208C1.71436 10.1888 1.87248 8.39194 2.05973 6.64171C2.3134 4.2708 4.2203 2.3639 6.59004 2.09976C8.35022 1.90356 10.1575 1.73506 12.0001 1.73506C13.8427 1.73506 15.6499 1.90356 17.41 2.09976C19.7798 2.3639 21.6868 4.2708 21.9404 6.64171C22.1277 8.39194 22.2858 10.1888 22.2858 12.0208C22.2858 13.8527 22.1277 15.6496 21.9404 17.3998C21.6868 19.7707 19.7798 21.6777 17.41 21.9418C16.4432 22.0495 15.462 22.1489 14.4686 22.2166V16.9579H17.7601V12.8436H14.4686V11.1979C14.4686 10.289 15.2055 9.5522 16.1144 9.5522H17.7601V7.08363C17.7601 6.17472 17.0233 5.43792 16.1144 5.43792H15.2915C12.5648 5.43792 10.3544 7.64835 10.3544 10.3751V12.8436H7.06293V16.9579H10.3544V22.265C9.07917 22.2031 7.82306 22.0791 6.59004 21.9418Z"
        stroke="#FBFBFB" stroke-width="2" stroke-linejoin="round" />
</svg>