<svg width="25" height="24" viewBox="0 0 25 24" fill="none" xmlns="http://www.w3.org/2000/svg">
    <g clip-path="url(#clip0_1086_149604)">
        <path
            d="M23.2836 18.0357L23.2836 18.0358C23.0318 20.4106 21.1124 22.3324 18.7342 22.5955C16.7328 22.8169 14.7133 23 12.6667 23C10.6202 23 8.6007 22.8169 6.59928 22.5955C4.22118 22.3324 2.30176 20.4104 2.04979 18.0358C1.83876 16.0467 1.66675 14.037 1.66675 12C1.66675 9.96297 1.83876 7.95322 2.04979 5.96429C2.30176 3.58947 4.22118 1.66755 6.59927 1.40451C8.60069 1.18313 10.6202 1 12.6667 1C14.7133 1 16.7328 1.18313 18.7342 1.40451C21.1123 1.66756 23.0318 3.58949 23.2836 5.96425L23.2836 5.96432C23.4947 7.95323 23.6667 9.96297 23.6667 12C23.6667 14.037 23.4947 16.0467 23.2836 18.0357Z"
            stroke="#FBFBFB" stroke-width="2" />
        <path
            d="M12.6667 15.7412C14.7329 15.7412 16.4079 14.0662 16.4079 12C16.4079 9.93378 14.7329 8.25879 12.6667 8.25879C10.6005 8.25879 8.92554 9.93378 8.92554 12C8.92554 14.0662 10.6005 15.7412 12.6667 15.7412Z"
            stroke="#FBFBFB" stroke-width="2" stroke-linecap="round" stroke-linejoin="round" />
        <path d="M18.3528 6.22746V6.97806" stroke="#FBFBFB" stroke-width="2" stroke-linecap="round" />
    </g>
    <defs>
        <clipPath id="clip0_1086_149604">
            <rect width="24" height="24" fill="white" transform="translate(0.666748)" />
        </clipPath>
    </defs>
</svg>