<svg width="25" height="24" viewBox="0 0 25 24" fill="none" xmlns="http://www.w3.org/2000/svg">
    <g clip-path="url(#clip0_1086_149605)">
        <path
            d="M7.83325 9C8.66168 9 9.33325 8.32843 9.33325 7.5C9.33325 6.67157 8.66168 6 7.83325 6C7.00482 6 6.33325 6.67157 6.33325 7.5C6.33325 8.32843 7.00482 9 7.83325 9Z"
            fill="#FBFBFB" />
        <path
            d="M7.83325 11C8.66168 11 9.33325 11.5773 9.33325 12.2895V16.7105C9.33325 17.4227 8.66168 18 7.83325 18C7.00482 18 6.33325 17.4227 6.33325 16.7105V12.2895C6.33325 11.5773 7.00482 11 7.83325 11Z"
            fill="#FBFBFB" />
        <path
            d="M14.3332 13.5789C13.7519 13.5789 13.2806 13.9913 13.2806 14.5V16.7105C13.2806 17.4227 12.6208 18 11.8069 18C10.993 18 10.3333 17.4227 10.3333 16.7105V14.5C10.3333 12.567 12.1241 11 14.3332 11C16.5424 11 18.3333 12.567 18.3333 14.5V16.7105C18.3333 17.4227 17.6735 18 16.8596 18C16.0456 18 15.3859 17.4227 15.3859 16.7105V14.5C15.3859 13.9913 14.9146 13.5789 14.3332 13.5789Z"
            fill="#FBFBFB" />
        <path
            d="M22.9501 18.0357L22.9501 18.0358C22.6983 20.4106 20.7789 22.3324 18.4007 22.5955C16.3993 22.8169 14.3798 23 12.3332 23C10.2867 23 8.2672 22.8169 6.26578 22.5955C3.88769 22.3324 1.96826 20.4104 1.71629 18.0358C1.50526 16.0467 1.33325 14.037 1.33325 12C1.33325 9.96297 1.50526 7.95322 1.71629 5.96429C1.96827 3.58947 3.88769 1.66755 6.26577 1.40451C8.2672 1.18313 10.2867 1 12.3332 1C14.3798 1 16.3993 1.18313 18.4007 1.40451C20.7788 1.66756 22.6983 3.58949 22.9501 5.96425L22.9501 5.96432C23.1612 7.95323 23.3333 9.96297 23.3333 12C23.3333 14.037 23.1612 16.0467 22.9501 18.0357Z"
            stroke="#FBFBFB" stroke-width="2" />
    </g>
    <defs>
        <clipPath id="clip0_1086_149605">
            <rect width="24" height="24" fill="white" transform="translate(0.333252)" />
        </clipPath>
    </defs>
</svg>