<svg width="24" height="24" viewBox="0 0 24 24" fill="none" xmlns="http://www.w3.org/2000/svg">
    <g clip-path="url(#clip0_1086_149603)">
        <path
            d="M22.6169 18.0357L22.6169 18.0358C22.365 20.4106 20.4456 22.3324 18.0674 22.5955C16.066 22.8169 14.0465 23 12 23C9.95346 23 7.93395 22.8169 5.93253 22.5955C3.55443 22.3324 1.63501 20.4104 1.38304 18.0358C1.17201 16.0467 1 14.037 1 12C1 9.96297 1.17201 7.95322 1.38304 5.96429C1.63501 3.58947 3.55444 1.66755 5.93252 1.40451C7.93394 1.18313 9.95345 1 12 1C14.0465 1 16.066 1.18313 18.0675 1.40451C20.4456 1.66756 22.365 3.58949 22.6169 5.96425L22.6169 5.96432C22.828 7.95323 23 9.96297 23 12C23 14.037 22.828 16.0467 22.6169 18.0357Z"
            stroke="#FBFBFB" stroke-width="2" />
        <path d="M9.5 17.1579V6.8421L16.5 12L9.5 17.1579Z" stroke="#FCF9F5" stroke-width="2" />
    </g>
    <defs>
        <clipPath id="clip0_1086_149603">
            <rect width="24" height="24" fill="white" />
        </clipPath>
    </defs>
</svg>