<svg width="102" height="11" viewBox="0 0 102 11" fill="none" xmlns="http://www.w3.org/2000/svg">
    <path
        d="M80.449 0.538964L80.4307 0.5H80.113C76.1782 0.5 74.1277 2.58271 72.4302 4.30692L72.4155 4.32188C71.5943 5.15579 70.8788 5.87852 70.02 6.40384C69.1791 6.91829 68.1871 7.24967 66.8162 7.24967C65.4453 7.24967 64.4535 6.91827 63.6127 6.40382C62.7541 5.87849 62.0386 5.15581 61.217 4.32188C61.217 4.32184 61.2169 4.3218 61.2169 4.32176L61.2021 4.30669C59.5045 2.58249 57.4543 0.5 53.5195 0.5C49.5858 0.5 47.5361 2.58378 45.8384 4.30982L45.825 4.32344C45.0044 5.15668 44.2896 5.87905 43.4317 6.40423C42.5916 6.9185 41.6007 7.24987 40.2314 7.24987C38.8612 7.24987 37.8698 6.91849 37.0292 6.40405C36.1709 5.87874 35.4556 5.15605 34.6344 4.32216C34.6344 4.32212 34.6343 4.32208 34.6343 4.32204L34.6207 4.30828C32.9237 2.58381 30.8732 0.500202 26.9397 0.500202C23.006 0.500202 20.9562 2.58417 19.2584 4.31026L19.2452 4.32364C18.4246 5.15688 17.7098 5.87926 16.852 6.40444C16.012 6.91872 15.0213 7.25007 13.6523 7.25007C12.2837 7.25007 11.2934 6.91875 10.4537 6.40444C9.59616 5.87921 8.88154 5.1567 8.06097 4.32311L8.04525 4.30714C6.34878 2.58326 4.29904 0.500399 0.368371 0.500399C-0.516334 0.500399 -1.1543 1.27316 -1.1543 2.12577C-1.1543 2.97712 -0.517472 3.75114 0.368371 3.75114C1.73737 3.75114 2.72788 4.08247 3.56766 4.59677C4.42526 5.122 5.13988 5.8445 5.96045 6.67809L5.97606 6.69395C7.67259 8.41789 9.72159 10.5 13.6523 10.5C17.5818 10.5 19.6306 8.41987 21.328 6.69661L21.3461 6.67819L21.3464 6.67792C22.1665 5.84398 22.8811 5.12131 23.7389 4.59605C24.5789 4.08168 25.5699 3.75033 26.9397 3.75033C28.3099 3.75033 29.3009 4.0817 30.141 4.59601C30.999 5.12124 31.7137 5.84371 32.5348 6.67731C32.5348 6.67733 32.5348 6.67736 32.5348 6.67738L32.5497 6.69249C34.2479 8.41741 36.2982 10.5 40.2315 10.5C44.1611 10.5 46.2099 8.41987 47.9072 6.6966L47.9253 6.67819L47.9255 6.678C48.746 5.84403 49.4608 5.12134 50.3187 4.59606C51.1588 4.08167 52.1499 3.75033 53.5197 3.75033C54.8906 3.75033 55.8824 4.08173 56.7233 4.59618C57.5819 5.12151 58.2973 5.84419 59.1189 6.67812C59.119 6.67816 59.119 6.6782 59.119 6.67824L59.1339 6.69332C60.8314 8.41752 62.8817 10.5 66.8164 10.5C70.7512 10.5 72.8017 8.4173 74.4992 6.69309L74.5138 6.67823C74.5139 6.67819 74.5139 6.67816 74.5139 6.67812C75.3355 5.84418 76.0512 5.12148 76.9098 4.59616C77.7508 4.0817 78.7426 3.75033 80.1132 3.75033C80.9979 3.75033 81.6358 2.97757 81.6358 2.12496C81.6358 1.38526 81.1553 0.705181 80.449 0.538964Z"
        fill="#ABE7C4" stroke="#ABE7C4" />
    <path
        d="M160.103 0.538964L160.085 0.5H159.767C155.833 0.5 153.782 2.58271 152.084 4.30692L152.07 4.32188C151.249 5.15579 150.533 5.87852 149.674 6.40384C148.833 6.91829 147.841 7.24967 146.471 7.24967C145.1 7.24967 144.108 6.91827 143.267 6.40382C142.408 5.87849 141.693 5.15581 140.871 4.32188C140.871 4.32184 140.871 4.3218 140.871 4.32176L140.856 4.30669C139.159 2.58249 137.109 0.5 133.174 0.5C129.24 0.5 127.19 2.58378 125.493 4.30982L125.479 4.32344C124.659 5.15668 123.944 5.87905 123.086 6.40423C122.246 6.9185 121.255 7.24987 119.886 7.24987C118.515 7.24987 117.524 6.91849 116.684 6.40405C115.825 5.87874 115.11 5.15605 114.289 4.32216C114.289 4.32212 114.289 4.32208 114.289 4.32204L114.275 4.30828C112.578 2.58381 110.527 0.500202 106.594 0.500202C102.66 0.500202 100.61 2.58417 98.9127 4.31026L98.8995 4.32364C98.0789 5.15688 97.3641 5.87926 96.5063 6.40444C95.6663 6.91872 94.6756 7.25007 93.3066 7.25007C91.938 7.25007 90.9477 6.91875 90.108 6.40444C89.2505 5.87921 88.5358 5.1567 87.7153 4.32311L87.6995 4.30714C86.0031 2.58326 83.9533 0.500399 80.0227 0.500399C79.138 0.500399 78.5 1.27316 78.5 2.12577C78.5 2.97712 79.1368 3.75114 80.0227 3.75114C81.3917 3.75114 82.3822 4.08247 83.222 4.59677C84.0796 5.122 84.7942 5.8445 85.6147 6.67809L85.6304 6.69395C87.3269 8.41789 89.3759 10.5 93.3066 10.5C97.2361 10.5 99.2849 8.41987 100.982 6.69661L101 6.67819L101.001 6.67792C101.821 5.84398 102.535 5.12131 103.393 4.59605C104.233 4.08168 105.224 3.75033 106.594 3.75033C107.964 3.75033 108.955 4.0817 109.795 4.59601C110.653 5.12124 111.368 5.84371 112.189 6.67731C112.189 6.67733 112.189 6.67736 112.189 6.67738L112.204 6.69249C113.902 8.41741 115.952 10.5 119.886 10.5C123.815 10.5 125.864 8.41987 127.561 6.6966L127.58 6.67819L127.58 6.678C128.4 5.84403 129.115 5.12134 129.973 4.59606C130.813 4.08167 131.804 3.75033 133.174 3.75033C134.545 3.75033 135.537 4.08173 136.378 4.59618C137.236 5.12151 137.952 5.84419 138.773 6.67812C138.773 6.67816 138.773 6.6782 138.773 6.67824L138.788 6.69332C140.486 8.41752 142.536 10.5 146.471 10.5C150.405 10.5 152.456 8.4173 154.153 6.69309L154.168 6.67823C154.168 6.67819 154.168 6.67816 154.168 6.67812C154.99 5.84418 155.705 5.12148 156.564 4.59616C157.405 4.0817 158.397 3.75033 159.767 3.75033C160.652 3.75033 161.29 2.97757 161.29 2.12496C161.29 1.38526 160.81 0.705181 160.103 0.538964Z"
        fill="#ABE7C4" stroke="#ABE7C4" />
</svg>